<svg xmlns="http://www.w3.org/2000/svg" viewBox="0 0 49.65 49.65"><defs><style>.cls-1{fill:#5e4a8a;}</style></defs><title>linkedin</title><g id="Calque_2" data-name="Calque 2"><g id="Capa_1" data-name="Capa 1"><path class="cls-1" d="M29.35,21.3a4,4,0,0,0-3.6,2V21.58h-4c.06,1.13,0,12,0,12h4s0-7.44.14-7.7a2.19,2.19,0,0,1,2.05-1.47c1.45,0,2,1.11,2,2.73v6.44h4v-6.9C34,23,32,21.3,29.35,21.3Zm-3.61,2h0s0,0,0,0Z"/><rect class="cls-1" x="15.52" y="21.58" width="4" height="12.04"/><path class="cls-1" d="M24.83,0A24.83,24.83,0,1,0,49.65,24.83,24.86,24.86,0,0,0,24.83,0ZM38,36.06A1.93,1.93,0,0,1,36,38H13.45a1.94,1.94,0,0,1-2-1.91V13.21a1.94,1.94,0,0,1,2-1.91H36a1.94,1.94,0,0,1,2,1.91Z"/><path class="cls-1" d="M17.55,15.78a2.09,2.09,0,1,0-.05,4.16h0a2.09,2.09,0,1,0,0-4.16Z"/></g></g></svg>