<svg xmlns="http://www.w3.org/2000/svg" viewBox="0 0 49.65 49.65"><defs><style>.cls-1{fill:#66a18e;}</style></defs><title>twitter</title><g id="Calque_2" data-name="Calque 2"><g id="Capa_1" data-name="Capa 1"><path class="cls-1" d="M24.83,0A24.83,24.83,0,1,0,49.65,24.83,24.83,24.83,0,0,0,24.83,0ZM37.18,19.25l0,.79c0,8.08-6.15,17.39-17.4,17.39a17.29,17.29,0,0,1-9.36-2.74,13.79,13.79,0,0,0,1.45.08,12.28,12.28,0,0,0,7.6-2.61,6.11,6.11,0,0,1-5.71-4.25,5.41,5.41,0,0,0,1.15.11,6.07,6.07,0,0,0,1.61-.21,6.12,6.12,0,0,1-4.91-6v-.08a6.07,6.07,0,0,0,2.77.76,6.1,6.1,0,0,1-1.89-8.15,17.32,17.32,0,0,0,12.6,6.38A5.75,5.75,0,0,1,25,19.34a6.12,6.12,0,0,1,10.58-4.18,12.64,12.64,0,0,0,3.88-1.48,6.19,6.19,0,0,1-2.69,3.38,12.58,12.58,0,0,0,3.51-1A12.35,12.35,0,0,1,37.18,19.25Z"/></g></g></svg>